unsigned char Assets_midi_level1n_mid[] = {
  0x4d, 0x54, 0x68, 0x64, 0x00, 0x00, 0x00, 0x06, 0x00, 0x00, 0x00, 0x01,
  0x00, 0x60, 0x4d, 0x54, 0x72, 0x6b, 0x00, 0x00, 0x09, 0x5e, 0x00, 0xff,
  0x03, 0x01, 0x00, 0x00, 0xff, 0x58, 0x04, 0x04, 0x02, 0x24, 0x08, 0x00,
  0xff, 0x58, 0x04, 0x04, 0x02, 0x24, 0x08, 0x92, 0x00, 0x90, 0x24, 0x64,
  0x18, 0x80, 0x24, 0x40, 0x82, 0x68, 0x90, 0x24, 0x64, 0x18, 0x80, 0x24,
  0x40, 0x82, 0x68, 0x90, 0x24, 0x64, 0x18, 0x80, 0x24, 0x40, 0x48, 0x90,
  0x26, 0x64, 0x18, 0x80, 0x26, 0x40, 0x48, 0x90, 0x24, 0x64, 0x18, 0x80,
  0x24, 0x40, 0x48, 0x90, 0x26, 0x64, 0x18, 0x80, 0x26, 0x40, 0x48, 0x90,
  0x24, 0x64, 0x18, 0x80, 0x24, 0x40, 0x48, 0x90, 0x26, 0x64, 0x18, 0x80,
  0x26, 0x40, 0x48, 0x90, 0x24, 0x64, 0x18, 0x80, 0x24, 0x40, 0x48, 0x90,
  0x26, 0x64, 0x18, 0x80, 0x26, 0x40, 0x48, 0x90, 0x24, 0x64, 0x18, 0x80,
  0x24, 0x40, 0x48, 0x90, 0x26, 0x64, 0x18, 0x80, 0x26, 0x40, 0x48, 0x90,
  0x24, 0x64, 0x18, 0x80, 0x24, 0x40, 0x48, 0x90, 0x26, 0x64, 0x18, 0x80,
  0x26, 0x40, 0x48, 0x90, 0x24, 0x64, 0x18, 0x80, 0x24, 0x40, 0x48, 0x90,
  0x26, 0x64, 0x18, 0x80, 0x26, 0x40, 0x48, 0x90, 0x24, 0x64, 0x18, 0x80,
  0x24, 0x40, 0x48, 0x90, 0x26, 0x64, 0x18, 0x80, 0x26, 0x40, 0x48, 0x90,
  0x24, 0x64, 0x18, 0x80, 0x24, 0x40, 0x48, 0x90, 0x27, 0x58, 0x18, 0x80,
  0x27, 0x40, 0x48, 0x90, 0x24, 0x64, 0x18, 0x80, 0x24, 0x40, 0x48, 0x90,
  0x27, 0x58, 0x18, 0x80, 0x27, 0x40, 0x48, 0x90, 0x24, 0x64, 0x18, 0x80,
  0x24, 0x40, 0x48, 0x90, 0x27, 0x58, 0x18, 0x80, 0x27, 0x40, 0x48, 0x90,
  0x24, 0x64, 0x18, 0x80, 0x24, 0x40, 0x48, 0x90, 0x27, 0x58, 0x18, 0x80,
  0x27, 0x40, 0x48, 0x90, 0x24, 0x64, 0x18, 0x80, 0x24, 0x40, 0x48, 0x90,
  0x27, 0x58, 0x18, 0x80, 0x27, 0x40, 0x48, 0x90, 0x24, 0x64, 0x18, 0x80,
  0x24, 0x40, 0x48, 0x90, 0x27, 0x58, 0x18, 0x80, 0x27, 0x40, 0x48, 0x90,
  0x24, 0x64, 0x18, 0x80, 0x24, 0x40, 0x48, 0x90, 0x27, 0x58, 0x18, 0x80,
  0x27, 0x40, 0x48, 0x90, 0x24, 0x64, 0x18, 0x80, 0x24, 0x40, 0x48, 0x90,
  0x27, 0x58, 0x18, 0x80, 0x27, 0x40, 0x48, 0x90, 0x24, 0x64, 0x18, 0x80,
  0x24, 0x40, 0x48, 0x90, 0x26, 0x64, 0x18, 0x80, 0x26, 0x40, 0x48, 0x90,
  0x24, 0x64, 0x18, 0x80, 0x24, 0x40, 0x48, 0x90, 0x26, 0x64, 0x18, 0x80,
  0x26, 0x40, 0x48, 0x90, 0x24, 0x64, 0x18, 0x80, 0x24, 0x40, 0x48, 0x90,
  0x26, 0x64, 0x18, 0x80, 0x26, 0x40, 0x48, 0x90, 0x24, 0x64, 0x18, 0x80,
  0x24, 0x40, 0x48, 0x90, 0x26, 0x64, 0x18, 0x80, 0x26, 0x40, 0x48, 0x90,
  0x24, 0x64, 0x18, 0x80, 0x24, 0x40, 0x48, 0x90, 0x26, 0x64, 0x18, 0x80,
  0x26, 0x40, 0x48, 0x90, 0x24, 0x64, 0x18, 0x80, 0x24, 0x40, 0x48, 0x90,
  0x26, 0x64, 0x18, 0x80, 0x26, 0x40, 0x48, 0x90, 0x24, 0x64, 0x18, 0x80,
  0x24, 0x40, 0x48, 0x90, 0x26, 0x64, 0x18, 0x80, 0x26, 0x40, 0x48, 0x90,
  0x24, 0x64, 0x18, 0x80, 0x24, 0x40, 0x48, 0x90, 0x26, 0x64, 0x18, 0x80,
  0x26, 0x40, 0x48, 0x90, 0x24, 0x64, 0x18, 0x80, 0x24, 0x40, 0x48, 0x90,
  0x27, 0x64, 0x18, 0x80, 0x27, 0x40, 0x48, 0x90, 0x24, 0x64, 0x18, 0x80,
  0x24, 0x40, 0x48, 0x90, 0x27, 0x64, 0x18, 0x80, 0x27, 0x40, 0x48, 0x90,
  0x24, 0x64, 0x18, 0x80, 0x24, 0x40, 0x48, 0x90, 0x27, 0x64, 0x18, 0x80,
  0x27, 0x40, 0x48, 0x90, 0x24, 0x64, 0x18, 0x80, 0x24, 0x40, 0x48, 0x90,
  0x27, 0x64, 0x18, 0x80, 0x27, 0x40, 0x48, 0x90, 0x24, 0x64, 0x18, 0x80,
  0x24, 0x40, 0x48, 0x90, 0x27, 0x64, 0x18, 0x80, 0x27, 0x40, 0x48, 0x90,
  0x24, 0x64, 0x18, 0x80, 0x24, 0x40, 0x48, 0x90, 0x27, 0x64, 0x18, 0x80,
  0x27, 0x40, 0x48, 0x90, 0x24, 0x64, 0x18, 0x80, 0x24, 0x40, 0x48, 0x90,
  0x27, 0x64, 0x18, 0x80, 0x27, 0x40, 0x48, 0x90, 0x24, 0x64, 0x18, 0x80,
  0x24, 0x40, 0x48, 0x90, 0x27, 0x64, 0x18, 0x80, 0x27, 0x40, 0x48, 0x90,
  0x24, 0x64, 0x18, 0x80, 0x24, 0x40, 0x48, 0x90, 0x26, 0x58, 0x18, 0x80,
  0x26, 0x40, 0x48, 0x90, 0x24, 0x64, 0x18, 0x80, 0x24, 0x40, 0x48, 0x90,
  0x26, 0x58, 0x18, 0x80, 0x26, 0x40, 0x48, 0x90, 0x24, 0x64, 0x18, 0x80,
  0x24, 0x40, 0x48, 0x90, 0x26, 0x58, 0x18, 0x80, 0x26, 0x40, 0x48, 0x90,
  0x24, 0x64, 0x18, 0x80, 0x24, 0x40, 0x48, 0x90, 0x26, 0x58, 0x18, 0x80,
  0x26, 0x40, 0x48, 0x90, 0x24, 0x64, 0x18, 0x80, 0x24, 0x40, 0x48, 0x90,
  0x26, 0x58, 0x18, 0x80, 0x26, 0x40, 0x48, 0x90, 0x24, 0x64, 0x18, 0x80,
  0x24, 0x40, 0x48, 0x90, 0x26, 0x58, 0x18, 0x80, 0x26, 0x40, 0x48, 0x90,
  0x24, 0x64, 0x18, 0x80, 0x24, 0x40, 0x48, 0x90, 0x26, 0x58, 0x18, 0x80,
  0x26, 0x40, 0x48, 0x90, 0x24, 0x64, 0x18, 0x80, 0x24, 0x40, 0x48, 0x90,
  0x26, 0x58, 0x18, 0x80, 0x26, 0x40, 0x48, 0x90, 0x24, 0x64, 0x18, 0x80,
  0x24, 0x40, 0x48, 0x90, 0x26, 0x58, 0x18, 0x80, 0x26, 0x40, 0x48, 0x90,
  0x24, 0x64, 0x18, 0x80, 0x24, 0x40, 0x48, 0x90, 0x26, 0x58, 0x18, 0x80,
  0x26, 0x40, 0x48, 0x90, 0x24, 0x64, 0x18, 0x80, 0x24, 0x40, 0x48, 0x90,
  0x26, 0x58, 0x18, 0x80, 0x26, 0x40, 0x48, 0x90, 0x24, 0x64, 0x18, 0x80,
  0x24, 0x40, 0x48, 0x90, 0x26, 0x58, 0x18, 0x80, 0x26, 0x40, 0x48, 0x90,
  0x24, 0x64, 0x18, 0x80, 0x24, 0x40, 0x48, 0x90, 0x26, 0x58, 0x18, 0x80,
  0x26, 0x40, 0x48, 0x90, 0x24, 0x64, 0x18, 0x80, 0x24, 0x40, 0x48, 0x90,
  0x26, 0x58, 0x18, 0x80, 0x26, 0x40, 0x48, 0x90, 0x24, 0x64, 0x18, 0x80,
  0x24, 0x40, 0x48, 0x90, 0x26, 0x58, 0x18, 0x80, 0x26, 0x40, 0x48, 0x90,
  0x24, 0x64, 0x18, 0x80, 0x24, 0x40, 0x48, 0x90, 0x26, 0x58, 0x18, 0x80,
  0x26, 0x40, 0x48, 0x90, 0x24, 0x64, 0x18, 0x80, 0x24, 0x40, 0x48, 0x90,
  0x27, 0x64, 0x18, 0x80, 0x27, 0x40, 0x48, 0x90, 0x24, 0x64, 0x18, 0x80,
  0x24, 0x40, 0x48, 0x90, 0x27, 0x64, 0x18, 0x80, 0x27, 0x40, 0x48, 0x90,
  0x24, 0x64, 0x18, 0x80, 0x24, 0x40, 0x48, 0x90, 0x27, 0x64, 0x18, 0x80,
  0x27, 0x40, 0x48, 0x90, 0x24, 0x64, 0x18, 0x80, 0x24, 0x40, 0x48, 0x90,
  0x27, 0x64, 0x18, 0x80, 0x27, 0x40, 0x48, 0x90, 0x24, 0x64, 0x18, 0x80,
  0x24, 0x40, 0x48, 0x90, 0x27, 0x64, 0x18, 0x80, 0x27, 0x40, 0x48, 0x90,
  0x24, 0x64, 0x18, 0x80, 0x24, 0x40, 0x48, 0x90, 0x27, 0x64, 0x18, 0x80,
  0x27, 0x40, 0x48, 0x90, 0x24, 0x64, 0x18, 0x80, 0x24, 0x40, 0x48, 0x90,
  0x27, 0x64, 0x18, 0x80, 0x27, 0x40, 0x48, 0x90, 0x24, 0x64, 0x18, 0x80,
  0x24, 0x40, 0x48, 0x90, 0x27, 0x64, 0x18, 0x80, 0x27, 0x40, 0x48, 0x90,
  0x24, 0x64, 0x18, 0x80, 0x24, 0x40, 0x48, 0x90, 0x27, 0x64, 0x18, 0x80,
  0x27, 0x40, 0x48, 0x90, 0x24, 0x64, 0x18, 0x80, 0x24, 0x40, 0x48, 0x90,
  0x27, 0x64, 0x18, 0x80, 0x27, 0x40, 0x48, 0x90, 0x24, 0x64, 0x18, 0x80,
  0x24, 0x40, 0x48, 0x90, 0x27, 0x64, 0x18, 0x80, 0x27, 0x40, 0x48, 0x90,
  0x24, 0x64, 0x18, 0x80, 0x24, 0x40, 0x48, 0x90, 0x27, 0x64, 0x18, 0x80,
  0x27, 0x40, 0x48, 0x90, 0x24, 0x64, 0x18, 0x80, 0x24, 0x40, 0x48, 0x90,
  0x27, 0x64, 0x18, 0x80, 0x27, 0x40, 0x48, 0x90, 0x24, 0x64, 0x18, 0x80,
  0x24, 0x40, 0x48, 0x90, 0x27, 0x64, 0x18, 0x80, 0x27, 0x40, 0x48, 0x90,
  0x24, 0x64, 0x18, 0x80, 0x24, 0x40, 0x48, 0x90, 0x27, 0x64, 0x18, 0x80,
  0x27, 0x40, 0x48, 0x90, 0x24, 0x64, 0x18, 0x80, 0x24, 0x40, 0x48, 0x90,
  0x27, 0x64, 0x18, 0x80, 0x27, 0x40, 0x48, 0x90, 0x24, 0x64, 0x18, 0x80,
  0x24, 0x40, 0x48, 0x90, 0x26, 0x58, 0x18, 0x80, 0x26, 0x40, 0x48, 0x90,
  0x24, 0x64, 0x18, 0x80, 0x24, 0x40, 0x48, 0x90, 0x26, 0x58, 0x18, 0x80,
  0x26, 0x40, 0x48, 0x90, 0x24, 0x64, 0x18, 0x80, 0x24, 0x40, 0x48, 0x90,
  0x26, 0x58, 0x18, 0x80, 0x26, 0x40, 0x48, 0x90, 0x24, 0x64, 0x18, 0x80,
  0x24, 0x40, 0x48, 0x90, 0x26, 0x58, 0x18, 0x80, 0x26, 0x40, 0x48, 0x90,
  0x24, 0x64, 0x18, 0x80, 0x24, 0x40, 0x48, 0x90, 0x26, 0x58, 0x18, 0x80,
  0x26, 0x40, 0x48, 0x90, 0x24, 0x64, 0x18, 0x80, 0x24, 0x40, 0x48, 0x90,
  0x26, 0x58, 0x18, 0x80, 0x26, 0x40, 0x48, 0x90, 0x24, 0x64, 0x18, 0x80,
  0x24, 0x40, 0x48, 0x90, 0x26, 0x58, 0x18, 0x80, 0x26, 0x40, 0x48, 0x90,
  0x24, 0x64, 0x18, 0x80, 0x24, 0x40, 0x48, 0x90, 0x26, 0x58, 0x18, 0x80,
  0x26, 0x40, 0x48, 0x90, 0x24, 0x64, 0x18, 0x80, 0x24, 0x40, 0x48, 0x90,
  0x26, 0x58, 0x18, 0x80, 0x26, 0x40, 0x48, 0x90, 0x24, 0x64, 0x18, 0x80,
  0x24, 0x40, 0x48, 0x90, 0x26, 0x58, 0x18, 0x80, 0x26, 0x40, 0x48, 0x90,
  0x24, 0x64, 0x18, 0x80, 0x24, 0x40, 0x48, 0x90, 0x26, 0x58, 0x18, 0x80,
  0x26, 0x40, 0x48, 0x90, 0x24, 0x64, 0x18, 0x80, 0x24, 0x40, 0x48, 0x90,
  0x26, 0x58, 0x18, 0x80, 0x26, 0x40, 0x48, 0x90, 0x24, 0x64, 0x18, 0x80,
  0x24, 0x40, 0x48, 0x90, 0x26, 0x58, 0x18, 0x80, 0x26, 0x40, 0x48, 0x90,
  0x24, 0x64, 0x18, 0x80, 0x24, 0x40, 0x48, 0x90, 0x26, 0x58, 0x18, 0x80,
  0x26, 0x40, 0x48, 0x90, 0x24, 0x64, 0x18, 0x80, 0x24, 0x40, 0x48, 0x90,
  0x26, 0x58, 0x18, 0x80, 0x26, 0x40, 0x48, 0x90, 0x24, 0x64, 0x18, 0x80,
  0x24, 0x40, 0x48, 0x90, 0x26, 0x58, 0x18, 0x80, 0x26, 0x40, 0x48, 0x90,
  0x24, 0x64, 0x18, 0x80, 0x24, 0x40, 0x48, 0x90, 0x27, 0x58, 0x18, 0x80,
  0x27, 0x40, 0x48, 0x90, 0x24, 0x64, 0x18, 0x80, 0x24, 0x40, 0x48, 0x90,
  0x27, 0x58, 0x18, 0x80, 0x27, 0x40, 0x48, 0x90, 0x24, 0x64, 0x18, 0x80,
  0x24, 0x40, 0x48, 0x90, 0x27, 0x58, 0x18, 0x80, 0x27, 0x40, 0x48, 0x90,
  0x24, 0x64, 0x18, 0x80, 0x24, 0x40, 0x48, 0x90, 0x27, 0x58, 0x18, 0x80,
  0x27, 0x40, 0x48, 0x90, 0x24, 0x64, 0x18, 0x80, 0x24, 0x40, 0x48, 0x90,
  0x27, 0x58, 0x18, 0x80, 0x27, 0x40, 0x48, 0x90, 0x24, 0x64, 0x18, 0x80,
  0x24, 0x40, 0x48, 0x90, 0x27, 0x58, 0x18, 0x80, 0x27, 0x40, 0x48, 0x90,
  0x24, 0x64, 0x18, 0x80, 0x24, 0x40, 0x48, 0x90, 0x27, 0x58, 0x18, 0x80,
  0x27, 0x40, 0x48, 0x90, 0x24, 0x64, 0x18, 0x80, 0x24, 0x40, 0x48, 0x90,
  0x27, 0x58, 0x18, 0x80, 0x27, 0x40, 0x48, 0x90, 0x24, 0x64, 0x18, 0x80,
  0x24, 0x40, 0x48, 0x90, 0x27, 0x58, 0x18, 0x80, 0x27, 0x40, 0x48, 0x90,
  0x24, 0x64, 0x18, 0x80, 0x24, 0x40, 0x48, 0x90, 0x27, 0x58, 0x18, 0x80,
  0x27, 0x40, 0x48, 0x90, 0x24, 0x64, 0x18, 0x80, 0x24, 0x40, 0x48, 0x90,
  0x27, 0x58, 0x18, 0x80, 0x27, 0x40, 0x48, 0x90, 0x24, 0x64, 0x18, 0x80,
  0x24, 0x40, 0x48, 0x90, 0x27, 0x58, 0x18, 0x80, 0x27, 0x40, 0x48, 0x90,
  0x24, 0x64, 0x18, 0x80, 0x24, 0x40, 0x48, 0x90, 0x27, 0x58, 0x18, 0x80,
  0x27, 0x40, 0x48, 0x90, 0x24, 0x64, 0x18, 0x80, 0x24, 0x40, 0x48, 0x90,
  0x27, 0x58, 0x18, 0x80, 0x27, 0x40, 0x48, 0x90, 0x24, 0x64, 0x18, 0x80,
  0x24, 0x40, 0x48, 0x90, 0x27, 0x58, 0x18, 0x80, 0x27, 0x40, 0x48, 0x90,
  0x24, 0x64, 0x18, 0x80, 0x24, 0x40, 0x48, 0x90, 0x27, 0x58, 0x18, 0x80,
  0x27, 0x40, 0x81, 0x28, 0x90, 0x26, 0x58, 0x18, 0x80, 0x26, 0x40, 0x81,
  0x28, 0x90, 0x26, 0x58, 0x18, 0x80, 0x26, 0x40, 0x81, 0x28, 0x90, 0x26,
  0x58, 0x18, 0x80, 0x26, 0x40, 0x81, 0x28, 0x90, 0x26, 0x58, 0x18, 0x80,
  0x26, 0x40, 0x81, 0x28, 0x90, 0x26, 0x58, 0x18, 0x80, 0x26, 0x40, 0x81,
  0x28, 0x90, 0x26, 0x58, 0x18, 0x80, 0x26, 0x40, 0x81, 0x28, 0x90, 0x26,
  0x58, 0x18, 0x80, 0x26, 0x40, 0x81, 0x28, 0x90, 0x26, 0x58, 0x18, 0x80,
  0x26, 0x40, 0x81, 0x28, 0x90, 0x26, 0x58, 0x18, 0x80, 0x26, 0x40, 0x81,
  0x28, 0x90, 0x26, 0x58, 0x18, 0x80, 0x26, 0x40, 0x81, 0x28, 0x90, 0x26,
  0x58, 0x18, 0x80, 0x26, 0x40, 0x81, 0x28, 0x90, 0x26, 0x58, 0x18, 0x80,
  0x26, 0x40, 0x81, 0x28, 0x90, 0x26, 0x58, 0x18, 0x80, 0x26, 0x40, 0x81,
  0x28, 0x90, 0x26, 0x58, 0x18, 0x80, 0x26, 0x40, 0x81, 0x28, 0x90, 0x26,
  0x58, 0x18, 0x80, 0x26, 0x40, 0x81, 0x28, 0x90, 0x26, 0x58, 0x18, 0x80,
  0x26, 0x40, 0x81, 0x28, 0x90, 0x27, 0x64, 0x18, 0x80, 0x27, 0x40, 0x81,
  0x28, 0x90, 0x27, 0x64, 0x18, 0x80, 0x27, 0x40, 0x81, 0x28, 0x90, 0x27,
  0x64, 0x18, 0x80, 0x27, 0x40, 0x81, 0x28, 0x90, 0x27, 0x64, 0x18, 0x80,
  0x27, 0x40, 0x81, 0x28, 0x90, 0x27, 0x64, 0x18, 0x80, 0x27, 0x40, 0x81,
  0x28, 0x90, 0x27, 0x64, 0x18, 0x80, 0x27, 0x40, 0x81, 0x28, 0x90, 0x27,
  0x64, 0x18, 0x80, 0x27, 0x40, 0x81, 0x28, 0x90, 0x27, 0x64, 0x18, 0x80,
  0x27, 0x40, 0x81, 0x28, 0x90, 0x27, 0x64, 0x18, 0x80, 0x27, 0x40, 0x81,
  0x28, 0x90, 0x27, 0x64, 0x18, 0x80, 0x27, 0x40, 0x81, 0x28, 0x90, 0x27,
  0x64, 0x18, 0x80, 0x27, 0x40, 0x81, 0x28, 0x90, 0x27, 0x64, 0x18, 0x80,
  0x27, 0x40, 0x81, 0x28, 0x90, 0x27, 0x64, 0x18, 0x80, 0x27, 0x40, 0x81,
  0x28, 0x90, 0x27, 0x64, 0x18, 0x80, 0x27, 0x40, 0x81, 0x28, 0x90, 0x27,
  0x64, 0x18, 0x80, 0x27, 0x40, 0x81, 0x28, 0x90, 0x27, 0x64, 0x18, 0x80,
  0x27, 0x40, 0x48, 0x90, 0x24, 0x64, 0x18, 0x80, 0x24, 0x40, 0x81, 0x28,
  0x90, 0x24, 0x64, 0x18, 0x80, 0x24, 0x40, 0x81, 0x28, 0x90, 0x24, 0x64,
  0x18, 0x80, 0x24, 0x40, 0x81, 0x28, 0x90, 0x24, 0x64, 0x18, 0x80, 0x24,
  0x40, 0x81, 0x28, 0x90, 0x24, 0x64, 0x18, 0x80, 0x24, 0x40, 0x81, 0x28,
  0x90, 0x24, 0x64, 0x18, 0x80, 0x24, 0x40, 0x81, 0x28, 0x90, 0x24, 0x64,
  0x18, 0x80, 0x24, 0x40, 0x81, 0x28, 0x90, 0x24, 0x64, 0x18, 0x80, 0x24,
  0x40, 0x81, 0x28, 0x90, 0x24, 0x64, 0x18, 0x80, 0x24, 0x40, 0x81, 0x28,
  0x90, 0x24, 0x64, 0x18, 0x80, 0x24, 0x40, 0x81, 0x28, 0x90, 0x24, 0x64,
  0x18, 0x80, 0x24, 0x40, 0x81, 0x28, 0x90, 0x24, 0x64, 0x18, 0x80, 0x24,
  0x40, 0x81, 0x28, 0x90, 0x24, 0x64, 0x18, 0x80, 0x24, 0x40, 0x81, 0x28,
  0x90, 0x24, 0x64, 0x18, 0x80, 0x24, 0x40, 0x81, 0x28, 0x90, 0x24, 0x64,
  0x18, 0x80, 0x24, 0x40, 0x81, 0x28, 0x90, 0x24, 0x64, 0x18, 0x80, 0x24,
  0x40, 0x82, 0x08, 0x90, 0x27, 0x58, 0x18, 0x80, 0x27, 0x40, 0x81, 0x28,
  0x90, 0x27, 0x58, 0x18, 0x80, 0x27, 0x40, 0x81, 0x28, 0x90, 0x27, 0x58,
  0x18, 0x80, 0x27, 0x40, 0x81, 0x28, 0x90, 0x27, 0x58, 0x18, 0x80, 0x27,
  0x40, 0x81, 0x28, 0x90, 0x27, 0x58, 0x18, 0x80, 0x27, 0x40, 0x81, 0x28,
  0x90, 0x27, 0x58, 0x18, 0x80, 0x27, 0x40, 0x81, 0x28, 0x90, 0x27, 0x58,
  0x18, 0x80, 0x27, 0x40, 0x81, 0x28, 0x90, 0x27, 0x58, 0x18, 0x80, 0x27,
  0x40, 0x81, 0x28, 0x90, 0x27, 0x58, 0x18, 0x80, 0x27, 0x40, 0x81, 0x28,
  0x90, 0x27, 0x58, 0x18, 0x80, 0x27, 0x40, 0x81, 0x28, 0x90, 0x27, 0x58,
  0x18, 0x80, 0x27, 0x40, 0x81, 0x28, 0x90, 0x27, 0x58, 0x18, 0x80, 0x27,
  0x40, 0x81, 0x28, 0x90, 0x27, 0x58, 0x18, 0x80, 0x27, 0x40, 0x81, 0x28,
  0x90, 0x27, 0x58, 0x18, 0x80, 0x27, 0x40, 0x81, 0x28, 0x90, 0x27, 0x58,
  0x18, 0x80, 0x27, 0x40, 0x81, 0x28, 0x90, 0x27, 0x58, 0x18, 0x80, 0x27,
  0x40, 0x81, 0x28, 0x90, 0x26, 0x64, 0x18, 0x80, 0x26, 0x40, 0x81, 0x28,
  0x90, 0x26, 0x64, 0x18, 0x80, 0x26, 0x40, 0x81, 0x28, 0x90, 0x26, 0x64,
  0x18, 0x80, 0x26, 0x40, 0x81, 0x28, 0x90, 0x26, 0x64, 0x18, 0x80, 0x26,
  0x40, 0x81, 0x28, 0x90, 0x26, 0x64, 0x18, 0x80, 0x26, 0x40, 0x81, 0x28,
  0x90, 0x26, 0x64, 0x18, 0x80, 0x26, 0x40, 0x81, 0x28, 0x90, 0x26, 0x64,
  0x18, 0x80, 0x26, 0x40, 0x81, 0x28, 0x90, 0x26, 0x64, 0x18, 0x80, 0x26,
  0x40, 0x81, 0x28, 0x90, 0x26, 0x64, 0x18, 0x80, 0x26, 0x40, 0x81, 0x28,
  0x90, 0x26, 0x64, 0x18, 0x80, 0x26, 0x40, 0x81, 0x28, 0x90, 0x26, 0x64,
  0x18, 0x80, 0x26, 0x40, 0x81, 0x28, 0x90, 0x26, 0x64, 0x18, 0x80, 0x26,
  0x40, 0x81, 0x28, 0x90, 0x26, 0x64, 0x18, 0x80, 0x26, 0x40, 0x81, 0x28,
  0x90, 0x26, 0x64, 0x18, 0x80, 0x26, 0x40, 0x81, 0x28, 0x90, 0x26, 0x64,
  0x18, 0x80, 0x26, 0x40, 0x81, 0x28, 0x90, 0x26, 0x64, 0x18, 0x80, 0x26,
  0x40, 0x81, 0x28, 0x90, 0x26, 0x64, 0x18, 0x80, 0x26, 0x40, 0x81, 0x28,
  0x90, 0x26, 0x64, 0x18, 0x80, 0x26, 0x40, 0x81, 0x28, 0x90, 0x26, 0x64,
  0x18, 0x80, 0x26, 0x40, 0x81, 0x28, 0x90, 0x26, 0x64, 0x18, 0x80, 0x26,
  0x40, 0x81, 0x28, 0x90, 0x26, 0x64, 0x18, 0x80, 0x26, 0x40, 0x81, 0x28,
  0x90, 0x26, 0x64, 0x18, 0x80, 0x26, 0x40, 0x81, 0x28, 0x90, 0x26, 0x64,
  0x18, 0x80, 0x26, 0x40, 0x81, 0x28, 0x90, 0x26, 0x64, 0x18, 0x80, 0x26,
  0x40, 0x81, 0x28, 0x90, 0x24, 0x64, 0x18, 0x80, 0x24, 0x40, 0x81, 0x28,
  0x90, 0x24, 0x64, 0x18, 0x80, 0x24, 0x40, 0x81, 0x28, 0x90, 0x24, 0x64,
  0x18, 0x80, 0x24, 0x40, 0x00, 0xff, 0x2f, 0x00
};
unsigned int Assets_midi_level1n_mid_len = 2420;
