unsigned char Assets_midi_level2e_mid[] = {
  0x4d, 0x54, 0x68, 0x64, 0x00, 0x00, 0x00, 0x06, 0x00, 0x00, 0x00, 0x01,
  0x00, 0x60, 0x4d, 0x54, 0x72, 0x6b, 0x00, 0x00, 0x06, 0x99, 0x00, 0xff,
  0x03, 0x01, 0x00, 0x00, 0xff, 0x58, 0x04, 0x04, 0x02, 0x24, 0x08, 0x00,
  0xff, 0x58, 0x04, 0x04, 0x02, 0x24, 0x08, 0x00, 0x90, 0x2a, 0x41, 0x18,
  0x80, 0x2a, 0x40, 0x96, 0x28, 0x90, 0x24, 0x41, 0x18, 0x80, 0x24, 0x40,
  0x48, 0x90, 0x24, 0x72, 0x18, 0x80, 0x24, 0x40, 0x81, 0x28, 0x90, 0x27,
  0x72, 0x18, 0x80, 0x27, 0x40, 0x81, 0x28, 0x90, 0x26, 0x72, 0x18, 0x80,
  0x26, 0x40, 0x81, 0x28, 0x90, 0x27, 0x72, 0x18, 0x80, 0x27, 0x40, 0x81,
  0x28, 0x90, 0x26, 0x72, 0x18, 0x80, 0x26, 0x40, 0x81, 0x28, 0x90, 0x27,
  0x72, 0x18, 0x80, 0x27, 0x40, 0x81, 0x28, 0x90, 0x26, 0x72, 0x18, 0x80,
  0x26, 0x40, 0x81, 0x28, 0x90, 0x27, 0x72, 0x18, 0x80, 0x27, 0x40, 0x81,
  0x28, 0x90, 0x26, 0x72, 0x18, 0x80, 0x26, 0x40, 0x81, 0x28, 0x90, 0x27,
  0x72, 0x18, 0x80, 0x27, 0x40, 0x81, 0x28, 0x90, 0x26, 0x72, 0x18, 0x80,
  0x26, 0x40, 0x81, 0x28, 0x90, 0x27, 0x72, 0x18, 0x80, 0x27, 0x40, 0x81,
  0x28, 0x90, 0x26, 0x72, 0x18, 0x80, 0x26, 0x40, 0x81, 0x28, 0x90, 0x27,
  0x72, 0x18, 0x80, 0x27, 0x40, 0x81, 0x28, 0x90, 0x26, 0x72, 0x18, 0x80,
  0x26, 0x40, 0x81, 0x28, 0x90, 0x27, 0x72, 0x18, 0x80, 0x27, 0x40, 0x48,
  0x90, 0x27, 0x41, 0x18, 0x80, 0x27, 0x40, 0x48, 0x90, 0x26, 0x72, 0x18,
  0x80, 0x26, 0x40, 0x81, 0x28, 0x90, 0x27, 0x72, 0x18, 0x80, 0x27, 0x40,
  0x81, 0x28, 0x90, 0x26, 0x72, 0x18, 0x80, 0x26, 0x40, 0x81, 0x28, 0x90,
  0x27, 0x72, 0x18, 0x80, 0x27, 0x40, 0x81, 0x28, 0x90, 0x26, 0x72, 0x18,
  0x80, 0x26, 0x40, 0x81, 0x28, 0x90, 0x27, 0x72, 0x18, 0x80, 0x27, 0x40,
  0x81, 0x28, 0x90, 0x26, 0x72, 0x18, 0x80, 0x26, 0x40, 0x81, 0x28, 0x90,
  0x27, 0x72, 0x18, 0x80, 0x27, 0x40, 0x81, 0x28, 0x90, 0x26, 0x72, 0x18,
  0x80, 0x26, 0x40, 0x81, 0x28, 0x90, 0x27, 0x72, 0x18, 0x80, 0x27, 0x40,
  0x81, 0x28, 0x90, 0x26, 0x72, 0x18, 0x80, 0x26, 0x40, 0x81, 0x28, 0x90,
  0x27, 0x72, 0x18, 0x80, 0x27, 0x40, 0x81, 0x28, 0x90, 0x26, 0x72, 0x18,
  0x80, 0x26, 0x40, 0x81, 0x28, 0x90, 0x27, 0x72, 0x18, 0x80, 0x27, 0x40,
  0x81, 0x28, 0x90, 0x26, 0x72, 0x18, 0x80, 0x26, 0x40, 0x81, 0x28, 0x90,
  0x27, 0x72, 0x18, 0x80, 0x27, 0x40, 0x48, 0x90, 0x27, 0x41, 0x18, 0x80,
  0x27, 0x40, 0x48, 0x90, 0x26, 0x72, 0x18, 0x80, 0x26, 0x40, 0x48, 0x90,
  0x24, 0x0d, 0x18, 0x80, 0x24, 0x40, 0x82, 0x08, 0x90, 0x24, 0x72, 0x18,
  0x80, 0x24, 0x40, 0x82, 0x68, 0x90, 0x24, 0x72, 0x18, 0x80, 0x24, 0x40,
  0x48, 0x90, 0x26, 0x72, 0x18, 0x80, 0x26, 0x40, 0x81, 0x28, 0x90, 0x27,
  0x72, 0x18, 0x80, 0x27, 0x40, 0x81, 0x28, 0x90, 0x26, 0x72, 0x18, 0x80,
  0x26, 0x40, 0x81, 0x28, 0x90, 0x27, 0x72, 0x18, 0x80, 0x27, 0x40, 0x81,
  0x28, 0x90, 0x24, 0x0d, 0x18, 0x80, 0x24, 0x40, 0x82, 0x08, 0x90, 0x24,
  0x72, 0x18, 0x80, 0x24, 0x40, 0x83, 0x48, 0x90, 0x24, 0x72, 0x18, 0x80,
  0x24, 0x40, 0x81, 0x28, 0x90, 0x27, 0x72, 0x18, 0x80, 0x27, 0x40, 0x81,
  0x28, 0x90, 0x26, 0x72, 0x18, 0x80, 0x26, 0x40, 0x81, 0x28, 0x90, 0x27,
  0x72, 0x18, 0x80, 0x27, 0x40, 0x81, 0x28, 0x90, 0x24, 0x64, 0x30, 0x80,
  0x24, 0x40, 0x81, 0x10, 0x90, 0x26, 0x72, 0x18, 0x80, 0x26, 0x40, 0x81,
  0x28, 0x90, 0x24, 0x64, 0x30, 0x80, 0x24, 0x40, 0x81, 0x10, 0x90, 0x26,
  0x72, 0x18, 0x80, 0x26, 0x40, 0x81, 0x28, 0x90, 0x24, 0x64, 0x30, 0x80,
  0x24, 0x40, 0x81, 0x10, 0x90, 0x26, 0x72, 0x18, 0x80, 0x26, 0x40, 0x81,
  0x28, 0x90, 0x24, 0x64, 0x30, 0x80, 0x24, 0x40, 0x81, 0x10, 0x90, 0x26,
  0x72, 0x18, 0x80, 0x26, 0x40, 0x81, 0x28, 0x90, 0x24, 0x64, 0x30, 0x80,
  0x24, 0x40, 0x81, 0x70, 0x90, 0x26, 0x72, 0x18, 0x80, 0x26, 0x40, 0x48,
  0x90, 0x24, 0x64, 0x30, 0x80, 0x24, 0x40, 0x81, 0x10, 0x90, 0x26, 0x72,
  0x18, 0x80, 0x26, 0x40, 0x81, 0x28, 0x90, 0x24, 0x64, 0x30, 0x80, 0x24,
  0x40, 0x81, 0x10, 0x90, 0x26, 0x72, 0x18, 0x80, 0x26, 0x40, 0x81, 0x28,
  0x90, 0x24, 0x64, 0x30, 0x80, 0x24, 0x40, 0x81, 0x10, 0x90, 0x26, 0x72,
  0x18, 0x80, 0x26, 0x40, 0x82, 0x08, 0x90, 0x27, 0x72, 0x18, 0x80, 0x27,
  0x40, 0x81, 0x28, 0x90, 0x26, 0x72, 0x18, 0x80, 0x26, 0x40, 0x81, 0x28,
  0x90, 0x27, 0x72, 0x18, 0x80, 0x27, 0x40, 0x81, 0x28, 0x90, 0x26, 0x72,
  0x18, 0x80, 0x26, 0x40, 0x81, 0x28, 0x90, 0x27, 0x72, 0x18, 0x80, 0x27,
  0x40, 0x81, 0x28, 0x90, 0x26, 0x72, 0x18, 0x80, 0x26, 0x40, 0x81, 0x28,
  0x90, 0x27, 0x72, 0x18, 0x80, 0x27, 0x40, 0x81, 0x28, 0x90, 0x26, 0x72,
  0x18, 0x80, 0x26, 0x40, 0x81, 0x28, 0x90, 0x27, 0x72, 0x18, 0x80, 0x27,
  0x40, 0x81, 0x28, 0x90, 0x26, 0x72, 0x18, 0x80, 0x26, 0x40, 0x81, 0x28,
  0x90, 0x27, 0x72, 0x18, 0x80, 0x27, 0x40, 0x81, 0x28, 0x90, 0x26, 0x72,
  0x18, 0x80, 0x26, 0x40, 0x81, 0x28, 0x90, 0x27, 0x72, 0x18, 0x80, 0x27,
  0x40, 0x81, 0x28, 0x90, 0x26, 0x72, 0x18, 0x80, 0x26, 0x40, 0x81, 0x28,
  0x90, 0x27, 0x72, 0x18, 0x80, 0x27, 0x40, 0x48, 0x90, 0x27, 0x41, 0x18,
  0x80, 0x27, 0x40, 0x48, 0x90, 0x26, 0x72, 0x18, 0x80, 0x26, 0x40, 0x81,
  0x28, 0x90, 0x27, 0x72, 0x18, 0x80, 0x27, 0x40, 0x81, 0x28, 0x90, 0x26,
  0x72, 0x18, 0x80, 0x26, 0x40, 0x81, 0x28, 0x90, 0x27, 0x72, 0x18, 0x80,
  0x27, 0x40, 0x81, 0x28, 0x90, 0x26, 0x72, 0x18, 0x80, 0x26, 0x40, 0x81,
  0x28, 0x90, 0x27, 0x72, 0x18, 0x80, 0x27, 0x40, 0x81, 0x28, 0x90, 0x26,
  0x72, 0x18, 0x80, 0x26, 0x40, 0x81, 0x28, 0x90, 0x27, 0x72, 0x18, 0x80,
  0x27, 0x40, 0x81, 0x28, 0x90, 0x26, 0x72, 0x18, 0x80, 0x26, 0x40, 0x81,
  0x28, 0x90, 0x27, 0x72, 0x18, 0x80, 0x27, 0x40, 0x81, 0x28, 0x90, 0x26,
  0x72, 0x18, 0x80, 0x26, 0x40, 0x81, 0x28, 0x90, 0x27, 0x72, 0x18, 0x80,
  0x27, 0x40, 0x81, 0x28, 0x90, 0x26, 0x72, 0x18, 0x80, 0x26, 0x40, 0x81,
  0x28, 0x90, 0x27, 0x72, 0x18, 0x80, 0x27, 0x40, 0x81, 0x28, 0x90, 0x26,
  0x72, 0x18, 0x80, 0x26, 0x40, 0x81, 0x28, 0x90, 0x27, 0x72, 0x18, 0x80,
  0x27, 0x40, 0x48, 0x90, 0x27, 0x41, 0x18, 0x80, 0x27, 0x40, 0x48, 0x90,
  0x26, 0x72, 0x18, 0x80, 0x26, 0x40, 0x48, 0x90, 0x24, 0x0d, 0x18, 0x80,
  0x24, 0x40, 0x82, 0x08, 0x90, 0x24, 0x72, 0x18, 0x80, 0x24, 0x40, 0x82,
  0x68, 0x90, 0x24, 0x72, 0x18, 0x80, 0x24, 0x40, 0x48, 0x90, 0x26, 0x72,
  0x18, 0x80, 0x26, 0x40, 0x81, 0x28, 0x90, 0x27, 0x72, 0x18, 0x80, 0x27,
  0x40, 0x81, 0x28, 0x90, 0x26, 0x72, 0x18, 0x80, 0x26, 0x40, 0x81, 0x28,
  0x90, 0x27, 0x72, 0x18, 0x80, 0x27, 0x40, 0x81, 0x28, 0x90, 0x24, 0x0d,
  0x18, 0x80, 0x24, 0x40, 0x82, 0x08, 0x90, 0x24, 0x72, 0x18, 0x80, 0x24,
  0x40, 0x83, 0x48, 0x90, 0x24, 0x72, 0x18, 0x80, 0x24, 0x40, 0x81, 0x28,
  0x90, 0x27, 0x72, 0x18, 0x80, 0x27, 0x40, 0x81, 0x28, 0x90, 0x26, 0x72,
  0x18, 0x80, 0x26, 0x40, 0x81, 0x28, 0x90, 0x27, 0x72, 0x18, 0x80, 0x27,
  0x40, 0x81, 0x28, 0x90, 0x24, 0x64, 0x30, 0x80, 0x24, 0x40, 0x81, 0x10,
  0x90, 0x26, 0x72, 0x18, 0x80, 0x26, 0x40, 0x81, 0x28, 0x90, 0x24, 0x64,
  0x30, 0x80, 0x24, 0x40, 0x81, 0x10, 0x90, 0x26, 0x72, 0x18, 0x80, 0x26,
  0x40, 0x81, 0x28, 0x90, 0x24, 0x64, 0x30, 0x80, 0x24, 0x40, 0x81, 0x10,
  0x90, 0x26, 0x72, 0x18, 0x80, 0x26, 0x40, 0x81, 0x28, 0x90, 0x24, 0x64,
  0x30, 0x80, 0x24, 0x40, 0x81, 0x10, 0x90, 0x26, 0x72, 0x18, 0x80, 0x26,
  0x40, 0x81, 0x28, 0x90, 0x24, 0x64, 0x30, 0x80, 0x24, 0x40, 0x81, 0x70,
  0x90, 0x26, 0x72, 0x18, 0x80, 0x26, 0x40, 0x48, 0x90, 0x24, 0x64, 0x30,
  0x80, 0x24, 0x40, 0x81, 0x10, 0x90, 0x26, 0x72, 0x18, 0x80, 0x26, 0x40,
  0x81, 0x28, 0x90, 0x24, 0x64, 0x30, 0x80, 0x24, 0x40, 0x81, 0x10, 0x90,
  0x26, 0x72, 0x18, 0x80, 0x26, 0x40, 0x81, 0x28, 0x90, 0x24, 0x64, 0x30,
  0x80, 0x24, 0x40, 0x81, 0x10, 0x90, 0x26, 0x72, 0x18, 0x80, 0x26, 0x40,
  0x81, 0x28, 0x90, 0x24, 0x64, 0x30, 0x80, 0x24, 0x40, 0x81, 0x10, 0x90,
  0x24, 0x64, 0x30, 0x80, 0x24, 0x40, 0x81, 0x10, 0x90, 0x24, 0x64, 0x30,
  0x80, 0x24, 0x40, 0x81, 0x10, 0x90, 0x24, 0x64, 0x30, 0x80, 0x24, 0x40,
  0x81, 0x10, 0x90, 0x24, 0x64, 0x30, 0x80, 0x24, 0x40, 0x81, 0x10, 0x90,
  0x24, 0x64, 0x30, 0x80, 0x24, 0x40, 0x81, 0x10, 0x90, 0x24, 0x64, 0x30,
  0x80, 0x24, 0x40, 0x81, 0x10, 0x90, 0x24, 0x64, 0x30, 0x80, 0x24, 0x40,
  0x81, 0x10, 0x90, 0x24, 0x64, 0x30, 0x80, 0x24, 0x40, 0x81, 0x10, 0x90,
  0x24, 0x64, 0x30, 0x80, 0x24, 0x40, 0x81, 0x10, 0x90, 0x24, 0x64, 0x30,
  0x80, 0x24, 0x40, 0x81, 0x10, 0x90, 0x24, 0x64, 0x30, 0x80, 0x24, 0x40,
  0x81, 0x10, 0x90, 0x24, 0x64, 0x30, 0x80, 0x24, 0x40, 0x81, 0x10, 0x90,
  0x24, 0x64, 0x30, 0x80, 0x24, 0x40, 0x81, 0x10, 0x90, 0x24, 0x64, 0x30,
  0x80, 0x24, 0x40, 0x81, 0x10, 0x90, 0x24, 0x64, 0x30, 0x80, 0x24, 0x40,
  0x81, 0x10, 0x90, 0x24, 0x0d, 0x18, 0x80, 0x24, 0x40, 0x82, 0x08, 0x90,
  0x24, 0x72, 0x18, 0x80, 0x24, 0x40, 0x82, 0x68, 0x90, 0x24, 0x72, 0x18,
  0x80, 0x24, 0x40, 0x48, 0x90, 0x26, 0x72, 0x18, 0x80, 0x26, 0x40, 0x81,
  0x28, 0x90, 0x27, 0x72, 0x18, 0x80, 0x27, 0x40, 0x81, 0x28, 0x90, 0x26,
  0x72, 0x18, 0x80, 0x26, 0x40, 0x81, 0x28, 0x90, 0x27, 0x72, 0x18, 0x80,
  0x27, 0x40, 0x81, 0x28, 0x90, 0x24, 0x0d, 0x18, 0x80, 0x24, 0x40, 0x82,
  0x08, 0x90, 0x24, 0x72, 0x18, 0x80, 0x24, 0x40, 0x83, 0x48, 0x90, 0x24,
  0x72, 0x18, 0x80, 0x24, 0x40, 0x81, 0x28, 0x90, 0x27, 0x72, 0x18, 0x80,
  0x27, 0x40, 0x81, 0x28, 0x90, 0x26, 0x72, 0x18, 0x80, 0x26, 0x40, 0x81,
  0x28, 0x90, 0x27, 0x72, 0x18, 0x80, 0x27, 0x40, 0x81, 0x28, 0x90, 0x24,
  0x64, 0x30, 0x80, 0x24, 0x40, 0x81, 0x10, 0x90, 0x26, 0x72, 0x18, 0x80,
  0x26, 0x40, 0x81, 0x28, 0x90, 0x24, 0x64, 0x30, 0x80, 0x24, 0x40, 0x81,
  0x10, 0x90, 0x26, 0x72, 0x18, 0x80, 0x26, 0x40, 0x81, 0x28, 0x90, 0x24,
  0x64, 0x30, 0x80, 0x24, 0x40, 0x81, 0x10, 0x90, 0x26, 0x72, 0x18, 0x80,
  0x26, 0x40, 0x81, 0x28, 0x90, 0x24, 0x64, 0x30, 0x80, 0x24, 0x40, 0x81,
  0x10, 0x90, 0x26, 0x72, 0x18, 0x80, 0x26, 0x40, 0x81, 0x28, 0x90, 0x24,
  0x64, 0x30, 0x80, 0x24, 0x40, 0x81, 0x70, 0x90, 0x26, 0x72, 0x18, 0x80,
  0x26, 0x40, 0x48, 0x90, 0x24, 0x64, 0x30, 0x80, 0x24, 0x40, 0x81, 0x10,
  0x90, 0x26, 0x72, 0x18, 0x80, 0x26, 0x40, 0x81, 0x28, 0x90, 0x24, 0x64,
  0x30, 0x80, 0x24, 0x40, 0x81, 0x10, 0x90, 0x26, 0x72, 0x18, 0x80, 0x26,
  0x40, 0x81, 0x28, 0x90, 0x24, 0x64, 0x30, 0x80, 0x24, 0x40, 0x81, 0x10,
  0x90, 0x26, 0x72, 0x18, 0x80, 0x26, 0x40, 0x81, 0x28, 0x90, 0x24, 0x0d,
  0x18, 0x80, 0x24, 0x40, 0x82, 0x08, 0x90, 0x24, 0x72, 0x18, 0x80, 0x24,
  0x40, 0x82, 0x68, 0x90, 0x24, 0x72, 0x18, 0x80, 0x24, 0x40, 0x48, 0x90,
  0x26, 0x72, 0x18, 0x80, 0x26, 0x40, 0x81, 0x28, 0x90, 0x27, 0x72, 0x18,
  0x80, 0x27, 0x40, 0x81, 0x28, 0x90, 0x26, 0x72, 0x18, 0x80, 0x26, 0x40,
  0x81, 0x28, 0x90, 0x27, 0x72, 0x18, 0x80, 0x27, 0x40, 0x81, 0x28, 0x90,
  0x24, 0x0d, 0x18, 0x80, 0x24, 0x40, 0x82, 0x08, 0x90, 0x24, 0x72, 0x18,
  0x80, 0x24, 0x40, 0x83, 0x48, 0x90, 0x24, 0x72, 0x18, 0x80, 0x24, 0x40,
  0x81, 0x28, 0x90, 0x27, 0x72, 0x18, 0x80, 0x27, 0x40, 0x81, 0x28, 0x90,
  0x26, 0x72, 0x18, 0x80, 0x26, 0x40, 0x81, 0x28, 0x90, 0x27, 0x72, 0x18,
  0x80, 0x27, 0x40, 0x00, 0xff, 0x2f, 0x00
};
unsigned int Assets_midi_level2e_mid_len = 1711;
